# xmcd CD database file
#
# Track frame offsets:
#	150
#	23504
#	42775
#	56187
#	68841
#	85860
#	106727
#	119111
#	129793
#	146259
#	161011
#	176059
#	192591
#	210781
#	223670
#	244955
#	262799
#	282058
#	297392
#
# Disc length: 4275 seconds
#
# Revision: 2
# Processed by: cddbd v1.4b41PL1 Copyright (c) Steve Scherf et al.
# Submitted via: Feurio! 1.60 - http://www.feurio.com
#
DISCID=1310b113,2710b113
DTITLE=Johny Thomson Singers - Gospel Songs CD 1
DYEAR=1900
DGENRE=
TTITLE0=Oh happy day
TTITLE1=We shall overcome
TTITLE2=Old time religion
TTITLE3=Be still my soul
TTITLE4=precious Lord - Amazing grace
TTITLE5=Hold to yoour testimony
TTITLE6=Jesus is gone away
TTITLE7=Lord send yoour power
TTITLE8=That will make me happy
TTITLE9=Couldn't hear nobody pray
TTITLE10=Steal away
TTITLE11=Will the circle be unbroken
TTITLE12=Blowing in the wind
TTITLE13=Joshua fit the battle of Jericho
TTITLE14=Worthy is the lamb
TTITLE15=Swing Lord sweet chariot
TTITLE16=What are you waiting for
TTITLE17=Lord show me
TTITLE18=Surley, goodness and mercy
EXTD=
EXTT0=
EXTT1=
EXTT2=
EXTT3=
EXTT4=
EXTT5=
EXTT6=
EXTT7=
EXTT8=
EXTT9=
EXTT10=
EXTT11=
EXTT12=
EXTT13=
EXTT14=
EXTT15=
EXTT16=
EXTT17=
EXTT18=
PLAYORDER=
